<svg width="236" height="206" viewBox="0 0 236 206" fill="none" xmlns="http://www.w3.org/2000/svg">
<g filter="url(#filter0_d_131_147)">
<path d="M94.9777 38.9423C96.8713 32.0149 105.717 29.9867 110.44 35.3972L113.927 39.3923C117.471 43.4531 123.766 43.5089 127.382 39.5115L131.968 34.4412C136.987 28.893 146.19 31.5343 147.503 38.8996L147.651 39.7287C148.691 45.5636 154.989 48.8178 160.35 46.29L165.843 43.6996C172.447 40.5857 179.497 47.0629 176.952 53.9063C174.881 59.4749 179.276 65.3154 185.201 64.8678L188.116 64.6476C195.612 64.0813 199.68 73.2301 194.238 78.4166C189.844 82.605 191.532 89.97 197.313 91.8255C204.47 94.1232 204.795 104.13 197.8 106.886L195.08 107.958C189.553 110.136 188.141 117.308 192.431 121.418C197.703 126.47 194.179 135.371 186.878 135.445L180.805 135.507C174.878 135.567 170.627 141.24 172.233 146.945L172.461 147.756C174.488 154.957 167.355 161.344 160.42 158.537L154.083 155.971C149.087 153.948 143.445 156.741 142.024 161.94L140.626 167.055C138.732 173.983 129.886 176.011 125.164 170.6L121.677 166.605C118.133 162.544 111.838 162.489 108.222 166.486L103.636 171.556C98.617 177.104 89.4133 174.463 88.1007 167.098L87.9529 166.269C86.913 160.434 80.6148 157.18 75.254 159.707L69.7605 162.298C63.1567 165.412 56.1068 158.934 58.6515 152.091C60.7221 146.523 56.3271 140.682 50.4029 141.13L47.4875 141.35C39.9913 141.916 35.9234 132.767 41.3653 127.581C45.7599 123.392 44.0713 116.027 38.2909 114.172C31.1331 111.874 30.8089 101.867 37.8031 99.1111L40.5233 98.0392C46.0507 95.8611 47.4622 88.6893 43.1724 84.579C37.9006 79.5278 41.4245 70.6262 48.7253 70.5521L54.7986 70.4905C60.7252 70.4304 64.9765 64.7574 63.3705 59.0523L63.1423 58.2416C61.1151 51.0402 68.2488 44.653 75.1832 47.4607L81.5203 50.0265C86.5164 52.0493 92.1582 49.2568 93.5794 44.0574L94.9777 38.9423Z" fill="#FEE7A6"/>
<path d="M96.4246 39.3378C98.0026 33.565 105.374 31.8748 109.31 36.3836L112.797 40.3786C116.932 45.1163 124.276 45.1813 128.494 40.5177L133.08 35.4475C137.263 30.8239 144.932 33.0251 146.026 39.1627L146.174 39.9919C147.387 46.7993 154.735 50.5959 160.989 47.6467L166.483 45.0563C171.871 42.5158 177.622 47.8003 175.546 53.3835C173.094 59.9775 178.298 66.8935 185.314 66.3636L188.229 66.1434C194.32 65.6833 197.625 73.1167 193.203 77.3308C187.985 82.3045 189.99 91.0503 196.854 93.2537C202.67 95.1206 202.933 103.251 197.25 105.491L194.53 106.563C187.985 109.142 186.314 117.634 191.393 122.501C195.694 126.622 192.819 133.885 186.863 133.945L180.79 134.007C173.875 134.077 168.915 140.696 170.789 147.352L171.017 148.162C172.707 154.163 166.762 159.486 160.983 157.146L154.646 154.581C148.817 152.221 142.235 155.479 140.577 161.544L139.179 166.66C137.601 172.432 130.229 174.123 126.294 169.614L122.807 165.619C118.672 160.881 111.328 160.816 107.109 165.48L102.523 170.55C98.341 175.173 90.6713 172.972 89.5774 166.835L89.4297 166.006C88.2164 159.198 80.8686 155.402 74.6143 158.351L69.1208 160.941C63.733 163.482 57.9813 158.197 60.0574 152.614C62.5093 146.02 57.3051 139.104 50.2899 139.634L47.3746 139.854C41.2838 140.314 37.9786 132.881 42.4002 128.667C47.6187 123.693 45.6135 114.947 38.7494 112.744C32.9336 110.877 32.6702 102.746 38.3531 100.507L41.0732 99.4348C47.6185 96.8556 49.2899 88.3631 44.2102 83.496C39.9091 79.3749 42.7841 72.1125 48.7405 72.0521L54.8138 71.9905C61.7281 71.9203 66.6881 65.3018 64.8144 58.6458L64.5862 57.8351C62.8969 51.834 68.8416 46.5114 74.6203 48.8511L80.9574 51.4168C86.7862 53.7768 93.3682 50.5189 95.0263 44.453L96.4246 39.3378Z" stroke="#EC6809" stroke-width="3"/>
</g>
<path d="M86.9715 68.1193C86.9207 67.9313 86.9038 67.7738 86.9208 67.647C86.9378 67.5202 87.0081 67.4081 87.1317 67.3106C87.2626 67.2115 87.4569 67.1208 87.7146 67.0387C87.9706 66.9493 88.3175 66.8544 88.7554 66.754L89.0291 66.6912L91.5248 66.119C92.2765 65.9467 92.9893 65.8562 93.6633 65.8476C94.3429 65.8301 94.9533 65.9129 95.4946 66.096C96.0342 66.2719 96.4872 66.5559 96.8537 66.9481C97.2185 67.333 97.4663 67.8446 97.5973 68.4829L98.2268 71.5301C98.2898 71.8383 98.3115 72.1674 98.2919 72.5176C98.278 72.8587 98.2068 73.2015 98.0784 73.5459C97.9556 73.8813 97.7657 74.209 97.5088 74.5291C97.2592 74.8475 96.931 75.1416 96.5244 75.4115C97.3048 75.5322 97.964 75.8112 98.5022 76.2485C99.0459 76.6769 99.3918 77.2812 99.54 78.0615L99.9186 80.014C99.9993 80.4334 100.003 80.8702 99.931 81.3247C99.8642 81.7702 99.6795 82.2043 99.377 82.6269C99.0801 83.0407 98.6449 83.4208 98.0715 83.7674C97.5053 84.1122 96.7661 84.3893 95.8539 84.5984L93.194 85.2083L92.9969 85.2535C92.6612 85.3304 92.3895 85.385 92.1819 85.4173C91.9815 85.4479 91.8243 85.4493 91.7105 85.4217C91.5966 85.394 91.5105 85.3369 91.4523 85.2504C91.3997 85.155 91.3505 85.0241 91.3047 84.858L86.9715 68.1193ZM93.348 75.1259C93.6982 75.0456 93.9843 74.9531 94.2061 74.8485C94.4279 74.7439 94.5903 74.6145 94.6932 74.4603C94.8017 74.2971 94.8581 74.1075 94.8624 73.8915C94.8739 73.6738 94.8409 73.4125 94.7633 73.1077L93.6639 69.016C93.5913 68.7331 93.5102 68.5135 93.4207 68.3574C93.3294 68.194 93.2073 68.0799 93.0542 68.0151C92.901 67.9504 92.708 67.9293 92.4751 67.952C92.2478 67.9657 91.959 68.0127 91.6087 68.0931L91.149 68.1985L92.5708 75.3041L93.348 75.1259ZM95.2916 82.8493C95.6419 82.769 95.9279 82.6765 96.1497 82.5719C96.3772 82.4583 96.546 82.3236 96.6562 82.1677C96.7664 82.0119 96.8236 81.8259 96.8279 81.6099C96.8377 81.3848 96.8002 81.1208 96.7154 80.8176L95.9971 77.9866C95.9173 77.7053 95.8244 77.4847 95.7186 77.3246C95.6184 77.1555 95.4873 77.0358 95.3252 76.9654C95.1631 76.895 94.9611 76.8684 94.7192 76.8854C94.4846 76.9008 94.1922 76.9487 93.8419 77.029L92.9552 77.2323L94.1203 83.1178L95.2916 82.8493ZM99.6746 65.2068C99.6238 65.0187 99.6069 64.8613 99.6239 64.7345C99.6409 64.6077 99.7112 64.4955 99.8348 64.3981C99.9657 64.2989 100.16 64.2083 100.418 64.1262C100.674 64.0367 101.021 63.9418 101.459 63.8414C101.583 63.813 101.699 63.7862 101.809 63.7611C101.926 63.7344 102.036 63.7129 102.14 63.6968L106.529 62.6904C106.719 62.6469 106.868 62.628 106.977 62.6338C107.093 62.6378 107.182 62.675 107.245 62.7452C107.314 62.8138 107.368 62.9166 107.408 63.0536C107.454 63.1889 107.502 63.366 107.552 63.5849C107.603 63.8038 107.637 63.988 107.656 64.1373C107.68 64.2776 107.676 64.3937 107.644 64.4857C107.617 64.5687 107.552 64.6374 107.449 64.6917C107.353 64.7443 107.211 64.7924 107.021 64.8359L103.912 65.5486L105.256 72.3149L107.894 71.7101C108.084 71.6666 108.233 71.6477 108.342 71.6535C108.458 71.6576 108.548 71.6947 108.61 71.765C108.678 71.8262 108.731 71.9253 108.77 72.0623C108.815 72.1903 108.862 72.3602 108.91 72.5718C108.959 72.7834 108.991 72.9602 109.009 73.1022C109.031 73.2353 109.027 73.3478 108.994 73.4398C108.967 73.5228 108.902 73.5914 108.799 73.6457C108.704 73.6983 108.561 73.7464 108.371 73.7899L105.678 74.4073L106.777 79.951L109.896 79.2357C110.086 79.1922 110.236 79.177 110.347 79.1901C110.463 79.1941 110.552 79.2313 110.614 79.3015C110.682 79.3628 110.735 79.4583 110.772 79.588C110.817 79.716 110.862 79.8785 110.907 80.0755C110.952 80.2726 110.983 80.4384 110.998 80.5731C111.021 80.7062 111.016 80.8187 110.983 80.9107C110.956 80.9937 110.892 81.066 110.791 81.1276C110.696 81.1802 110.553 81.2282 110.363 81.2717L105.985 82.2757L105.7 82.3409C105.364 82.4179 105.093 82.4725 104.885 82.5047C104.685 82.5353 104.527 82.5368 104.414 82.5091C104.3 82.4815 104.214 82.4244 104.155 82.3379C104.103 82.2424 104.054 82.1116 104.008 81.9454L99.6746 65.2068ZM112.972 75.892C112.915 75.6748 112.889 75.4963 112.895 75.3566C112.9 75.2095 112.95 75.0906 113.044 74.9999C113.144 74.9001 113.294 74.8159 113.493 74.7471C113.692 74.6784 113.96 74.6055 114.296 74.5286C114.631 74.4516 114.915 74.3981 115.146 74.3681C115.377 74.3382 115.567 74.3446 115.715 74.3875C115.869 74.4214 115.987 74.5018 116.07 74.6287C116.158 74.7467 116.224 74.916 116.267 75.1366L116.522 76.4492C116.578 76.7591 116.658 77.0095 116.763 77.2004C116.876 77.3897 117.016 77.5305 117.183 77.6227C117.355 77.706 117.561 77.7473 117.799 77.7465C118.037 77.7457 118.316 77.7085 118.637 77.6349C118.966 77.5596 119.237 77.4705 119.452 77.3675C119.673 77.2629 119.84 77.1363 119.952 76.9878C120.062 76.8319 120.123 76.6451 120.135 76.4274C120.146 76.2097 120.117 75.9476 120.047 75.6411L119.873 74.9321C119.814 74.6767 119.75 74.4493 119.682 74.25C119.611 74.0434 119.52 73.8645 119.409 73.7134C119.305 73.5606 119.168 73.4344 118.999 73.3349C118.838 73.2336 118.625 73.1595 118.361 73.1126L114.191 72.3634C113.733 72.2763 113.34 72.1515 113.01 71.9888C112.681 71.8262 112.399 71.6182 112.165 71.3647C111.937 71.1096 111.745 70.808 111.588 70.4599C111.432 70.1117 111.294 69.7131 111.176 69.264L110.216 65.5782C110.076 65.0343 110.048 64.5143 110.134 64.0183C110.228 63.5207 110.453 63.062 110.81 62.6422C111.167 62.2224 111.661 61.8479 112.292 61.5188C112.929 61.1808 113.722 60.903 114.67 60.6855C115.619 60.468 116.45 60.3735 117.163 60.402C117.882 60.4215 118.49 60.5433 118.987 60.7674C119.491 60.9898 119.893 61.3046 120.194 61.7119C120.495 62.1191 120.701 62.5981 120.812 63.1488L121.706 67.5524C121.749 67.773 121.757 67.9594 121.731 68.1114C121.702 68.2562 121.627 68.3809 121.505 68.4857C121.382 68.5831 121.206 68.6696 120.977 68.745C120.756 68.8188 120.478 68.8942 120.142 68.9711C119.799 69.0498 119.508 69.1049 119.27 69.1366C119.038 69.1665 118.846 69.1646 118.692 69.1307C118.537 69.0895 118.415 69.0099 118.326 68.8919C118.236 68.7667 118.162 68.5954 118.105 68.3782L116.892 63.6904C116.811 63.3709 116.716 63.1239 116.607 62.9492C116.497 62.7745 116.369 62.6503 116.222 62.5766C116.081 62.5012 115.917 62.4698 115.728 62.4825C115.544 62.4861 115.336 62.5147 115.102 62.5683C114.869 62.6218 114.665 62.6878 114.491 62.7661C114.322 62.8354 114.188 62.9354 114.087 63.066C113.994 63.195 113.936 63.3618 113.914 63.5666C113.892 63.7714 113.914 64.0352 113.98 64.358L114.861 68.7532C114.917 69.0322 114.984 69.2741 115.062 69.4791C115.145 69.6751 115.249 69.8433 115.374 69.9837C115.505 70.1225 115.662 70.2364 115.844 70.3253C116.025 70.4142 116.248 70.4822 116.513 70.5291L120.401 71.2047C120.824 71.2765 121.185 71.3781 121.484 71.5092C121.789 71.6314 122.048 71.8063 122.261 72.0339C122.475 72.2615 122.649 72.5519 122.784 72.905C122.926 73.2565 123.042 73.6983 123.134 74.2305L123.252 74.8485C123.346 75.3262 123.346 75.7948 123.252 76.2542C123.158 76.7137 122.946 77.1463 122.616 77.5522C122.285 77.9507 121.827 78.3131 121.241 78.6394C120.661 78.9568 119.929 79.2167 119.046 79.4192C118.163 79.6216 117.387 79.7036 116.718 79.665C116.055 79.6248 115.488 79.4938 115.014 79.2721C114.548 79.0486 114.172 78.747 113.885 78.3672C113.598 77.9875 113.397 77.5613 113.281 77.0886L112.972 75.892ZM124.85 60.7366L122.803 61.2059C122.613 61.2494 122.46 61.2691 122.344 61.265C122.235 61.2593 122.147 61.2257 122.079 61.1645C122.017 61.0942 121.963 60.9915 121.916 60.8562C121.875 60.7119 121.83 60.5303 121.78 60.3114C121.73 60.0924 121.692 59.9128 121.668 59.7725C121.651 59.6305 121.655 59.5143 121.68 59.424C121.713 59.332 121.777 59.2597 121.872 59.2071C121.975 59.1528 122.121 59.1039 122.311 59.0604L126.066 58.1996L126.317 58.1418L130.324 57.2233C130.514 57.1798 130.663 57.1609 130.772 57.1666C130.888 57.1707 130.981 57.2071 131.05 57.2756C131.12 57.3442 131.174 57.447 131.213 57.5839C131.259 57.7193 131.308 57.8964 131.358 58.1153C131.408 58.3342 131.443 58.5183 131.462 58.6676C131.486 58.808 131.482 58.9241 131.449 59.0161C131.415 59.1008 131.346 59.1703 131.244 59.2246C131.148 59.2772 131.005 59.3253 130.816 59.3688L128.769 59.8381L131.922 75.6028C131.949 75.7505 131.953 75.8722 131.937 75.9682C131.928 76.0624 131.878 76.1468 131.788 76.2213C131.697 76.2958 131.552 76.3675 131.353 76.4362C131.159 76.496 130.895 76.5643 130.559 76.6413C130.223 76.7183 129.955 76.772 129.755 76.8026C129.554 76.8332 129.394 76.8355 129.273 76.8095C129.159 76.7819 129.076 76.7239 129.025 76.6358C128.973 76.5403 128.923 76.4095 128.878 76.2433L124.85 60.7366ZM87.9598 112.405C87.9023 112.188 87.8768 112.009 87.8831 111.87C87.8878 111.723 87.9374 111.604 88.0318 111.513C88.1318 111.413 88.2815 111.329 88.4808 111.26C88.6801 111.192 88.9476 111.119 89.2833 111.042C89.619 110.965 89.9025 110.911 90.1337 110.881C90.365 110.851 90.5546 110.858 90.7027 110.901C90.8564 110.935 90.9747 111.015 91.0576 111.142C91.1461 111.26 91.2118 111.429 91.2547 111.65L91.5096 112.962C91.5653 113.272 91.6457 113.523 91.7509 113.714C91.8635 113.903 92.0033 114.044 92.1704 114.136C92.3431 114.219 92.5484 114.26 92.7864 114.26C93.0243 114.259 93.3038 114.222 93.6249 114.148C93.9533 114.073 94.2248 113.984 94.4393 113.881C94.6611 113.776 94.8279 113.65 94.9398 113.501C95.05 113.345 95.1109 113.158 95.1224 112.941C95.134 112.723 95.1046 112.461 95.0343 112.154L94.8602 111.445C94.8017 111.19 94.738 110.962 94.6693 110.763C94.5989 110.557 94.5079 110.378 94.3965 110.227C94.2923 110.074 94.1558 109.948 93.9871 109.848C93.8256 109.747 93.6127 109.673 93.3485 109.626L89.1786 108.877C88.7208 108.79 88.3274 108.665 87.9982 108.502C87.669 108.339 87.387 108.131 87.1522 107.878C86.9248 107.623 86.7327 107.321 86.5761 106.973C86.4194 106.625 86.282 106.226 86.1636 105.777L85.2034 102.091C85.0633 101.547 85.0362 101.027 85.1222 100.532C85.2155 100.034 85.4406 99.5752 85.7976 99.1554C86.1545 98.7356 86.6486 98.3611 87.2798 98.032C87.9167 97.694 88.7094 97.4162 89.6581 97.1987C90.6068 96.9812 91.4378 96.8867 92.151 96.9152C92.8698 96.9347 93.4777 97.0565 93.9746 97.2806C94.4787 97.5029 94.8812 97.8178 95.182 98.225C95.4828 98.6323 95.6886 99.1113 95.7995 99.662L96.6939 104.066C96.7368 104.286 96.745 104.473 96.7184 104.625C96.6901 104.769 96.6151 104.894 96.4931 104.999C96.3695 105.096 96.1935 105.183 95.965 105.258C95.7438 105.332 95.4653 105.407 95.1296 105.484C94.7866 105.563 94.4959 105.618 94.2573 105.65C94.0261 105.68 93.8336 105.678 93.6799 105.644C93.5245 105.603 93.4026 105.523 93.3141 105.405C93.2239 105.28 93.1501 105.109 93.0926 104.891L91.8795 100.204C91.7986 99.8841 91.7035 99.6371 91.5943 99.4624C91.4852 99.2877 91.3568 99.1635 91.2094 99.0898C91.0692 99.0144 90.9045 98.983 90.7154 98.9957C90.5319 98.9993 90.3233 99.0279 90.0898 99.0815C89.8563 99.135 89.6525 99.201 89.4784 99.2793C89.31 99.3486 89.1754 99.4486 89.0748 99.5792C88.9815 99.7081 88.9237 99.875 88.9015 100.08C88.8794 100.285 88.9014 100.548 88.9677 100.871L89.8487 105.266C89.905 105.545 89.972 105.787 90.0497 105.992C90.1331 106.188 90.2369 106.356 90.3613 106.497C90.493 106.636 90.6497 106.75 90.8314 106.839C91.0131 106.927 91.236 106.995 91.5003 107.042L95.3883 107.718C95.8118 107.79 96.1731 107.891 96.472 108.022C96.7766 108.145 97.0356 108.32 97.2491 108.547C97.4625 108.775 97.6367 109.065 97.7714 109.418C97.9134 109.77 98.0301 110.212 98.1214 110.744L98.24 111.362C98.3342 111.839 98.3341 112.308 98.2397 112.767C98.1454 113.227 97.9335 113.66 97.604 114.065C97.2729 114.464 96.8145 114.826 96.2287 115.153C95.6486 115.47 94.917 115.73 94.034 115.932C93.151 116.135 92.3748 116.217 91.7054 116.178C91.0432 116.138 90.4755 116.007 90.0022 115.785C89.5362 115.562 89.1598 115.26 88.873 114.88C88.5862 114.501 88.3848 114.074 88.2687 113.602L87.9598 112.405ZM97.6603 96.447C97.6095 96.259 97.5926 96.1015 97.6097 95.9747C97.6267 95.8479 97.697 95.7358 97.8206 95.6383C97.9515 95.5392 98.1458 95.4485 98.4035 95.3664C98.6595 95.277 99.0064 95.1821 99.4443 95.0817C99.5683 95.0532 99.6851 95.0265 99.7946 95.0014C99.9113 94.9746 100.022 94.9532 100.125 94.937L104.515 93.9306C104.705 93.8871 104.854 93.8682 104.963 93.874C105.079 93.8781 105.168 93.9153 105.23 93.9855C105.3 94.0541 105.354 94.1568 105.393 94.2938C105.44 94.4291 105.488 94.6062 105.538 94.8252C105.588 95.0441 105.623 95.2282 105.642 95.3775C105.666 95.5178 105.662 95.634 105.629 95.726C105.602 95.809 105.537 95.8776 105.435 95.9319C105.339 95.9845 105.197 96.0326 105.007 96.0761L101.898 96.7889L103.242 103.555L105.88 102.95C106.07 102.907 106.219 102.888 106.328 102.894C106.444 102.898 106.533 102.935 106.596 103.005C106.663 103.066 106.717 103.166 106.756 103.303C106.801 103.431 106.847 103.6 106.896 103.812C106.944 104.024 106.977 104.2 106.994 104.342C107.017 104.476 107.012 104.588 106.98 104.68C106.953 104.763 106.888 104.832 106.785 104.886C106.689 104.939 106.547 104.987 106.357 105.03L103.664 105.648L104.762 111.191L107.882 110.476C108.072 110.432 108.222 110.417 108.333 110.43C108.449 110.434 108.538 110.472 108.6 110.542C108.668 110.603 108.721 110.699 108.758 110.828C108.803 110.956 108.848 111.119 108.893 111.316C108.938 111.513 108.968 111.679 108.984 111.813C109.007 111.946 109.002 112.059 108.969 112.151C108.942 112.234 108.878 112.306 108.777 112.368C108.681 112.42 108.539 112.468 108.349 112.512L103.97 113.516L103.686 113.581C103.35 113.658 103.078 113.713 102.871 113.745C102.67 113.776 102.513 113.777 102.399 113.749C102.285 113.722 102.199 113.665 102.141 113.578C102.089 113.483 102.039 113.352 101.994 113.186L97.6603 96.447ZM107.758 94.1318C107.707 93.9437 107.691 93.7863 107.708 93.6595C107.725 93.5327 107.795 93.4206 107.918 93.3231C108.049 93.224 108.244 93.1333 108.501 93.0512C108.757 92.9618 109.104 92.8669 109.542 92.7665C109.973 92.6677 110.323 92.6029 110.592 92.5718C110.86 92.5335 111.071 92.5313 111.224 92.5651C111.385 92.5974 111.501 92.6668 111.572 92.7736C111.649 92.8786 111.706 93.0268 111.743 93.2182L114.86 108.876L117.717 108.221C117.907 108.177 118.057 108.162 118.168 108.175C118.284 108.179 118.373 108.217 118.435 108.287C118.503 108.348 118.556 108.444 118.593 108.573C118.638 108.701 118.683 108.864 118.728 109.061C118.773 109.258 118.803 109.424 118.819 109.558C118.842 109.691 118.837 109.804 118.804 109.896C118.777 109.979 118.713 110.051 118.612 110.113C118.516 110.165 118.374 110.214 118.184 110.257L113.784 111.266C113.448 111.343 113.176 111.398 112.969 111.43C112.768 111.46 112.611 111.462 112.497 111.434C112.383 111.406 112.297 111.349 112.239 111.263C112.186 111.167 112.137 111.037 112.091 110.87L107.758 94.1318ZM116.958 92.0224C116.908 91.8343 116.891 91.6769 116.908 91.5501C116.925 91.4233 116.995 91.3111 117.119 91.2137C117.25 91.1145 117.444 91.0239 117.702 90.9418C117.958 90.8523 118.305 90.7574 118.742 90.657C119.173 90.5583 119.523 90.4935 119.792 90.4624C120.06 90.4241 120.271 90.4218 120.425 90.4557C120.586 90.4879 120.701 90.5574 120.772 90.6641C120.85 90.7692 120.907 90.9174 120.943 91.1088L124.061 106.767L126.918 106.112C127.107 106.068 127.257 106.053 127.368 106.066C127.484 106.07 127.573 106.107 127.636 106.177C127.703 106.239 127.756 106.334 127.793 106.464C127.838 106.592 127.883 106.754 127.928 106.951C127.973 107.148 128.004 107.314 128.019 107.449C128.042 107.582 128.037 107.695 128.004 107.787C127.977 107.87 127.913 107.942 127.812 108.003C127.717 108.056 127.574 108.104 127.384 108.148L122.984 109.157C122.648 109.233 122.377 109.288 122.169 109.32C121.968 109.351 121.811 109.352 121.697 109.325C121.584 109.297 121.498 109.24 121.439 109.153C121.387 109.058 121.337 108.927 121.292 108.761L116.958 92.0224ZM126.159 89.913C126.108 89.7249 126.091 89.5675 126.108 89.4407C126.125 89.3139 126.195 89.2017 126.319 89.1043C126.45 89.0051 126.644 88.9145 126.902 88.8324C127.158 88.7429 127.505 88.648 127.943 88.5476C128.067 88.5192 128.183 88.4924 128.293 88.4673C128.41 88.4405 128.52 88.4191 128.624 88.403L133.013 87.3966C133.203 87.353 133.352 87.3342 133.461 87.3399C133.577 87.344 133.667 87.3812 133.729 87.4514C133.798 87.52 133.853 87.6228 133.892 87.7598C133.938 87.8951 133.986 88.0722 134.037 88.2911C134.087 88.51 134.121 88.6941 134.14 88.8434C134.165 88.9838 134.161 89.0999 134.128 89.1919C134.101 89.2749 134.036 89.3436 133.933 89.3979C133.838 89.4505 133.695 89.4985 133.505 89.5421L130.397 90.2548L131.74 97.0211L134.379 96.4163C134.568 96.3728 134.718 96.3539 134.826 96.3597C134.943 96.3637 135.032 96.4009 135.094 96.4711C135.162 96.5324 135.215 96.6315 135.254 96.7685C135.299 96.8965 135.346 97.0663 135.394 97.278C135.443 97.4896 135.476 97.6664 135.493 97.8084C135.516 97.9415 135.511 98.054 135.478 98.1459C135.451 98.229 135.386 98.2976 135.283 98.3519C135.188 98.4045 135.045 98.4526 134.855 98.4961L132.163 99.1135L133.261 104.657L136.381 103.942C136.57 103.898 136.72 103.883 136.831 103.896C136.947 103.9 137.036 103.938 137.098 104.008C137.166 104.069 137.219 104.164 137.256 104.294C137.301 104.422 137.346 104.585 137.391 104.782C137.436 104.979 137.467 105.145 137.482 105.279C137.505 105.412 137.5 105.525 137.467 105.617C137.44 105.7 137.376 105.772 137.275 105.834C137.18 105.886 137.037 105.934 136.847 105.978L132.469 106.982L132.184 107.047C131.848 107.124 131.577 107.179 131.369 107.211C131.169 107.242 131.012 107.243 130.898 107.215C130.784 107.188 130.698 107.131 130.64 107.044C130.587 106.949 130.538 106.818 130.492 106.652L126.159 89.913ZM136.257 87.5977C136.206 87.4097 136.189 87.2522 136.206 87.1254C136.223 86.9986 136.293 86.8865 136.417 86.789C136.548 86.6899 136.742 86.5993 137 86.5171C137.256 86.4277 137.603 86.3328 138.041 86.2324L138.314 86.1697L140.81 85.5974C141.562 85.4251 142.274 85.3346 142.948 85.3261C143.628 85.3085 144.238 85.3913 144.78 85.5744C145.319 85.7503 145.772 86.0343 146.139 86.4265C146.511 86.8098 146.759 87.3214 146.882 87.9613L147.932 93.1935C147.989 93.4724 148.009 93.7634 147.994 94.0665C147.986 94.3678 147.932 94.6682 147.832 94.9678C147.73 95.26 147.577 95.5485 147.374 95.8333C147.178 96.1164 146.916 96.3837 146.59 96.6352L149.829 101.365C149.991 101.605 150.117 101.802 150.207 101.959C150.302 102.106 150.363 102.238 150.39 102.354C150.41 102.442 150.413 102.522 150.399 102.594C150.383 102.659 150.329 102.726 150.237 102.793C150.15 102.851 150.018 102.912 149.841 102.976C149.662 103.032 149.423 103.095 149.124 103.163C148.832 103.23 148.592 103.274 148.405 103.294C148.223 103.305 148.066 103.291 147.934 103.252C147.802 103.213 147.684 103.148 147.578 103.057C147.479 102.957 147.365 102.829 147.237 102.674L143.719 97.8349L142.515 98.1109L143.622 103.641C143.66 103.809 143.673 103.948 143.66 104.059C143.653 104.16 143.6 104.249 143.502 104.325C143.412 104.4 143.27 104.467 143.076 104.527C142.882 104.587 142.618 104.655 142.282 104.732C141.946 104.809 141.675 104.863 141.467 104.896C141.267 104.926 141.109 104.928 140.996 104.9C140.882 104.872 140.796 104.815 140.737 104.729C140.685 104.633 140.636 104.503 140.59 104.336L136.257 87.5977ZM142.982 96.1259C143.332 96.0456 143.618 95.9531 143.84 95.8485C144.06 95.7366 144.222 95.6035 144.325 95.4493C144.435 95.2935 144.492 95.1075 144.496 94.8915C144.506 94.6665 144.472 94.4015 144.395 94.0967L142.949 88.4944C142.876 88.2115 142.795 87.992 142.706 87.8358C142.615 87.6724 142.492 87.5583 142.339 87.4936C142.186 87.4288 141.993 87.4078 141.76 87.4305C141.533 87.4442 141.244 87.4912 140.894 87.5715L140.434 87.6769L142.161 96.3141L142.982 96.1259ZM79.8066 131.319C79.7558 131.131 79.7389 130.973 79.7559 130.847C79.7729 130.72 79.8432 130.608 79.9668 130.51C80.0977 130.411 80.292 130.32 80.5497 130.238C80.8058 130.149 81.1527 130.054 81.5905 129.954L81.8642 129.891L84.36 129.319C85.1117 129.146 85.8245 129.056 86.4985 129.047C87.1781 129.03 87.7885 129.112 88.3298 129.296C88.8694 129.471 89.3224 129.755 89.6888 130.148C90.0536 130.533 90.3015 131.044 90.4325 131.682L91.062 134.73C91.125 135.038 91.1467 135.367 91.1271 135.717C91.1132 136.058 91.042 136.401 90.9135 136.745C90.7907 137.081 90.6009 137.409 90.3439 137.729C90.0943 138.047 89.7662 138.341 89.3595 138.611C90.1399 138.732 90.7992 139.011 91.3373 139.448C91.881 139.877 92.227 140.481 92.3752 141.261L92.7537 143.214C92.8345 143.633 92.8386 144.07 92.7662 144.524C92.6993 144.97 92.5146 145.404 92.2121 145.827C91.9152 146.24 91.4801 146.62 90.9066 146.967C90.3405 147.312 89.6013 147.589 88.6891 147.798L86.0291 148.408L85.8321 148.453C85.4964 148.53 85.2247 148.585 85.017 148.617C84.8166 148.647 84.6595 148.649 84.5456 148.621C84.4317 148.594 84.3457 148.537 84.2874 148.45C84.2348 148.355 84.1856 148.224 84.1399 148.058L79.8066 131.319ZM86.1831 138.325C86.5334 138.245 86.8195 138.153 87.0413 138.048C87.2631 137.943 87.4254 137.814 87.5284 137.66C87.6369 137.497 87.6933 137.307 87.6975 137.091C87.709 136.873 87.676 136.612 87.5984 136.307L86.499 132.216C86.4265 131.933 86.3454 131.713 86.2558 131.557C86.1646 131.394 86.0424 131.279 85.8893 131.215C85.7362 131.15 85.5432 131.129 85.3103 131.152C85.083 131.165 84.7942 131.212 84.4439 131.293L83.9842 131.398L85.4059 138.504L86.1831 138.325ZM88.1267 146.049C88.477 145.969 88.7631 145.876 88.9849 145.771C89.2123 145.658 89.3812 145.523 89.4914 145.367C89.6016 145.211 89.6588 145.026 89.663 144.809C89.6729 144.584 89.6354 144.32 89.5505 144.017L88.8323 141.186C88.7524 140.905 88.6596 140.684 88.5538 140.524C88.4536 140.355 88.3224 140.235 88.1603 140.165C87.9983 140.095 87.7963 140.068 87.5544 140.085C87.3198 140.1 87.0273 140.148 86.6771 140.229L85.7904 140.432L86.9555 146.317L88.1267 146.049ZM92.3455 128.444C92.2947 128.256 92.2778 128.099 92.2949 127.972C92.3119 127.845 92.3822 127.733 92.5058 127.635C92.6367 127.536 92.831 127.446 93.0887 127.363C93.352 127.272 93.6989 127.177 94.1295 127.079C94.56 126.98 94.91 126.915 95.1794 126.884C95.4472 126.846 95.6579 126.843 95.8116 126.877C95.9726 126.91 96.0884 126.979 96.1589 127.086C96.2368 127.191 96.2938 127.339 96.33 127.53L99.2482 141.967C99.3111 142.275 99.3953 142.524 99.5005 142.715C99.613 142.905 99.7528 143.045 99.9199 143.138C100.093 143.221 100.298 143.262 100.536 143.261C100.774 143.261 101.053 143.223 101.374 143.15C101.696 143.076 101.963 142.988 102.178 142.885C102.392 142.782 102.556 142.656 102.667 142.508C102.785 142.35 102.85 142.162 102.861 141.945C102.88 141.725 102.85 141.463 102.773 141.158L99.0995 126.895C99.0487 126.707 99.0318 126.55 99.0488 126.423C99.0658 126.296 99.1361 126.184 99.2597 126.087C99.3906 125.988 99.5849 125.897 99.8426 125.815C100.099 125.725 100.446 125.631 100.883 125.53C101.314 125.431 101.664 125.367 101.933 125.336C102.201 125.297 102.412 125.295 102.566 125.329C102.727 125.361 102.842 125.431 102.913 125.537C102.991 125.642 103.048 125.791 103.084 125.982L105.969 140.322C106.063 140.8 106.063 141.272 105.971 141.739C105.878 142.205 105.667 142.642 105.338 143.048C105.015 143.452 104.562 143.817 103.976 144.143C103.397 144.468 102.667 144.732 101.784 144.934C100.901 145.136 100.124 145.218 99.4549 145.18C98.7855 145.141 98.2141 145.011 97.7408 144.789C97.2748 144.566 96.8984 144.264 96.6116 143.885C96.3248 143.505 96.1234 143.079 96.0073 142.606L92.3455 128.444ZM105.892 125.338C105.841 125.15 105.824 124.993 105.841 124.866C105.858 124.739 105.928 124.627 106.052 124.53C106.183 124.43 106.377 124.34 106.635 124.258C106.891 124.168 107.238 124.073 107.675 123.973L107.949 123.91L110.445 123.338C111.197 123.166 111.909 123.075 112.583 123.067C113.263 123.049 113.873 123.132 114.415 123.315C114.954 123.491 115.407 123.775 115.774 124.167C116.146 124.55 116.394 125.062 116.517 125.702L117.567 130.934C117.624 131.213 117.644 131.504 117.629 131.807C117.621 132.108 117.567 132.409 117.467 132.708C117.365 133 117.212 133.289 117.009 133.574C116.813 133.857 116.551 134.124 116.225 134.376L119.464 139.106C119.626 139.345 119.752 139.543 119.842 139.699C119.937 139.846 119.998 139.978 120.025 140.095C120.045 140.182 120.048 140.262 120.034 140.335C120.018 140.4 119.964 140.466 119.872 140.533C119.785 140.592 119.653 140.652 119.476 140.716C119.297 140.773 119.058 140.835 118.759 140.904C118.467 140.971 118.227 141.014 118.039 141.034C117.858 141.045 117.701 141.031 117.569 140.992C117.437 140.953 117.319 140.888 117.213 140.797C117.113 140.697 117 140.57 116.872 140.415L113.354 135.575L112.15 135.851L113.257 141.382C113.295 141.549 113.308 141.689 113.295 141.799C113.288 141.901 113.235 141.99 113.137 142.066C113.047 142.14 112.905 142.207 112.711 142.267C112.517 142.327 112.253 142.395 111.917 142.472C111.581 142.549 111.31 142.604 111.102 142.636C110.902 142.667 110.744 142.668 110.631 142.641C110.517 142.613 110.431 142.556 110.372 142.469C110.32 142.374 110.271 142.243 110.225 142.077L105.892 125.338ZM112.617 133.866C112.967 133.786 113.253 133.694 113.475 133.589C113.695 133.477 113.857 133.344 113.96 133.19C114.07 133.034 114.127 132.848 114.131 132.632C114.141 132.407 114.107 132.142 114.03 131.837L112.584 126.235C112.511 125.952 112.43 125.732 112.341 125.576C112.25 125.413 112.127 125.299 111.974 125.234C111.821 125.169 111.628 125.148 111.395 125.171C111.168 125.185 110.879 125.232 110.529 125.312L110.069 125.417L111.796 134.055L112.617 133.866ZM119.222 125.162C119.085 124.633 119.061 124.124 119.148 123.635C119.243 123.145 119.473 122.689 119.837 122.267C120.202 121.846 120.713 121.464 121.372 121.121C122.031 120.778 122.86 120.491 123.86 120.262L127.122 119.514C127.37 119.457 127.563 119.429 127.701 119.428C127.837 119.419 127.945 119.452 128.023 119.527C128.109 119.599 128.174 119.715 128.218 119.874C128.262 120.032 128.315 120.247 128.377 120.517C128.427 120.736 128.456 120.914 128.465 121.05C128.473 121.186 128.46 121.297 128.425 121.382C128.398 121.465 128.343 121.527 128.261 121.569C128.186 121.609 128.082 121.644 127.951 121.675L124.361 122.498C124.089 122.552 123.854 122.618 123.657 122.694C123.465 122.761 123.315 122.861 123.207 122.993C123.099 123.125 123.035 123.297 123.014 123.509C122.992 123.714 123.014 123.978 123.08 124.301L125.41 135.968C125.473 136.276 125.553 136.527 125.651 136.719C125.756 136.91 125.885 137.054 126.038 137.149C126.189 137.238 126.368 137.285 126.577 137.291C126.793 137.295 127.043 137.264 127.328 137.199C127.613 137.134 127.848 137.053 128.033 136.957C128.226 136.859 128.37 136.737 128.468 136.592C128.571 136.438 128.624 136.253 128.629 136.037C128.633 135.821 128.596 135.56 128.519 135.256L126.71 128.273C126.653 128.056 126.634 127.876 126.655 127.733C126.675 127.582 126.746 127.458 126.87 127.361C126.999 127.254 127.185 127.162 127.428 127.083C127.671 127.004 127.983 126.921 128.362 126.834C128.742 126.747 129.051 126.688 129.289 126.656C129.528 126.625 129.714 126.632 129.847 126.678C129.986 126.715 130.09 126.799 130.158 126.929C130.225 127.052 130.28 127.224 130.323 127.445L131.719 134.441C131.813 134.919 131.818 135.39 131.732 135.855C131.645 136.313 131.448 136.742 131.14 137.143C130.833 137.544 130.401 137.904 129.844 138.224C129.286 138.536 128.584 138.789 127.737 138.983C126.891 139.178 126.147 139.252 125.507 139.207C124.867 139.161 124.321 139.025 123.869 138.799C123.418 138.572 123.053 138.268 122.773 137.886C122.494 137.505 122.292 137.079 122.169 136.608L119.222 125.162ZM131.199 119.536C131.148 119.348 131.132 119.19 131.149 119.063C131.166 118.937 131.236 118.824 131.359 118.727C131.49 118.628 131.685 118.537 131.942 118.455C132.206 118.364 132.553 118.269 132.983 118.17C133.414 118.072 133.764 118.007 134.033 117.976C134.301 117.937 134.512 117.935 134.665 117.969C134.826 118.001 134.942 118.071 135.013 118.177C135.091 118.283 135.148 118.431 135.184 118.622L138.102 133.058C138.165 133.366 138.249 133.616 138.354 133.807C138.467 133.996 138.607 134.137 138.774 134.229C138.946 134.313 139.152 134.354 139.39 134.353C139.628 134.352 139.907 134.315 140.228 134.241C140.549 134.168 140.817 134.08 141.032 133.977C141.246 133.874 141.409 133.748 141.521 133.599C141.639 133.442 141.703 133.254 141.715 133.036C141.734 132.817 141.704 132.555 141.627 132.25L137.953 117.987C137.902 117.799 137.886 117.642 137.903 117.515C137.92 117.388 137.99 117.276 138.113 117.178C138.244 117.079 138.439 116.989 138.696 116.907C138.952 116.817 139.299 116.722 139.737 116.622C140.168 116.523 140.518 116.458 140.787 116.427C141.055 116.389 141.266 116.387 141.419 116.421C141.58 116.453 141.696 116.522 141.767 116.629C141.844 116.734 141.901 116.882 141.938 117.074L144.822 131.414C144.916 131.891 144.917 132.364 144.825 132.83C144.732 133.297 144.521 133.733 144.191 134.139C143.869 134.543 143.415 134.909 142.829 135.235C142.251 135.56 141.52 135.823 140.637 136.026C139.754 136.228 138.978 136.31 138.309 136.272C137.639 136.233 137.068 136.103 136.595 135.881C136.128 135.658 135.752 135.356 135.465 134.976C135.179 134.597 134.977 134.17 134.861 133.698L131.199 119.536ZM144.745 116.43C144.694 116.242 144.678 116.084 144.695 115.958C144.712 115.831 144.782 115.719 144.905 115.621C145.036 115.522 145.231 115.431 145.488 115.349C145.744 115.26 146.091 115.165 146.529 115.065C146.653 115.036 146.77 115.009 146.879 114.984C146.996 114.957 147.107 114.936 147.21 114.92L151.6 113.913C151.79 113.87 151.939 113.851 152.048 113.857C152.164 113.861 152.253 113.898 152.315 113.968C152.385 114.037 152.439 114.14 152.478 114.277C152.525 114.412 152.573 114.589 152.623 114.808C152.673 115.027 152.708 115.211 152.727 115.36C152.751 115.501 152.747 115.617 152.714 115.709C152.687 115.792 152.622 115.861 152.52 115.915C152.424 115.967 152.282 116.015 152.092 116.059L148.983 116.772L150.327 123.538L152.965 122.933C153.155 122.89 153.304 122.871 153.413 122.877C153.529 122.881 153.618 122.918 153.68 122.988C153.748 123.049 153.802 123.148 153.841 123.285C153.886 123.413 153.932 123.583 153.981 123.795C154.029 124.007 154.062 124.183 154.079 124.325C154.102 124.458 154.097 124.571 154.064 124.663C154.037 124.746 153.973 124.815 153.87 124.869C153.774 124.921 153.632 124.97 153.442 125.013L150.749 125.63L151.847 131.174L154.967 130.459C155.157 130.415 155.307 130.4 155.417 130.413C155.534 130.417 155.623 130.454 155.685 130.525C155.753 130.586 155.805 130.681 155.843 130.811C155.888 130.939 155.932 131.102 155.978 131.299C156.023 131.496 156.053 131.662 156.069 131.796C156.092 131.929 156.087 132.042 156.054 132.134C156.027 132.217 155.963 132.289 155.862 132.351C155.766 132.403 155.624 132.451 155.434 132.495L151.055 133.499L150.771 133.564C150.435 133.641 150.163 133.696 149.956 133.728C149.755 133.758 149.598 133.76 149.484 133.732C149.37 133.705 149.284 133.648 149.226 133.561C149.173 133.466 149.124 133.335 149.078 133.169L144.745 116.43ZM154.843 114.115C154.792 113.927 154.775 113.769 154.792 113.642C154.809 113.516 154.88 113.403 155.003 113.306C155.134 113.207 155.329 113.116 155.586 113.034C155.842 112.945 156.189 112.85 156.627 112.749L156.901 112.687L159.396 112.114C160.148 111.942 160.861 111.852 161.535 111.843C162.215 111.825 162.825 111.908 163.366 112.091C163.906 112.267 164.359 112.551 164.725 112.943C165.097 113.327 165.345 113.838 165.469 114.478L166.519 119.71C166.575 119.989 166.596 120.28 166.581 120.583C166.573 120.885 166.519 121.185 166.419 121.485C166.317 121.777 166.164 122.065 165.96 122.35C165.764 122.633 165.503 122.901 165.176 123.152L168.416 127.882C168.578 128.122 168.704 128.319 168.793 128.476C168.889 128.623 168.95 128.755 168.976 128.871C168.996 128.959 168.999 129.039 168.985 129.111C168.97 129.176 168.916 129.243 168.823 129.31C168.737 129.368 168.605 129.429 168.428 129.493C168.248 129.549 168.009 129.612 167.71 129.68C167.418 129.747 167.179 129.791 166.991 129.811C166.809 129.821 166.652 129.808 166.521 129.769C166.389 129.73 166.27 129.665 166.165 129.574C166.065 129.474 165.951 129.346 165.824 129.191L162.306 124.352L161.102 124.628L162.209 130.158C162.247 130.326 162.26 130.465 162.247 130.576C162.239 130.677 162.187 130.766 162.089 130.842C161.998 130.917 161.856 130.984 161.663 131.044C161.469 131.103 161.204 131.172 160.869 131.249C160.533 131.326 160.261 131.38 160.054 131.413C159.853 131.443 159.696 131.445 159.582 131.417C159.468 131.389 159.382 131.332 159.324 131.246C159.271 131.15 159.222 131.02 159.176 130.853L154.843 114.115ZM161.568 122.643C161.919 122.563 162.205 122.47 162.427 122.365C162.647 122.253 162.808 122.12 162.911 121.966C163.021 121.81 163.079 121.624 163.083 121.408C163.093 121.183 163.059 120.918 162.981 120.614L161.536 115.011C161.463 114.728 161.382 114.509 161.292 114.353C161.201 114.189 161.079 114.075 160.926 114.011C160.773 113.946 160.58 113.925 160.347 113.947C160.119 113.961 159.831 114.008 159.48 114.088L159.021 114.194L160.747 122.831L161.568 122.643Z" fill="#222E60"/>
<defs>
<filter id="filter0_d_131_147" x="20.7356" y="31.4705" width="182.132" height="151.056" filterUnits="userSpaceOnUse" color-interpolation-filters="sRGB">
<feFlood flood-opacity="0" result="BackgroundImageFix"/>
<feColorMatrix in="SourceAlpha" type="matrix" values="0 0 0 0 0 0 0 0 0 0 0 0 0 0 0 0 0 0 127 0" result="hardAlpha"/>
<feOffset dx="-8" dy="4"/>
<feGaussianBlur stdDeviation="2"/>
<feComposite in2="hardAlpha" operator="out"/>
<feColorMatrix type="matrix" values="0 0 0 0 0 0 0 0 0 0 0 0 0 0 0 0 0 0 0.74 0"/>
<feBlend mode="normal" in2="BackgroundImageFix" result="effect1_dropShadow_131_147"/>
<feBlend mode="normal" in="SourceGraphic" in2="effect1_dropShadow_131_147" result="shape"/>
</filter>
</defs>
</svg>
