<svg width="643" height="643" viewBox="0 0 643 643" fill="none" xmlns="http://www.w3.org/2000/svg">
<path d="M29.5503 387.818C48.1977 387.818 72.15 395.32 81.7952 399.071C77.7756 488.289 154.133 419.165 143.684 405.501C141.693 402.896 295.596 413.271 371.15 419.165C382.082 410.806 442.954 453.191 472.425 473.821L493.323 473.821L493.561 473.475C520.081 434.9 559.06 378.202 609.065 387.818C659.22 397.463 635.322 439.527 617.103 459.353C584.952 478.644 474.193 515.135 288.362 506.776C102.532 498.416 38.3915 479.18 29.5503 470.606C-12.2456 426.881 12.1354 397.195 29.5503 387.818Z" fill="#FEE7A6"/>
<path d="M423.395 257.608L437.06 274.487C616.301 262.43 601.026 247.159 609.867 247.159C618.709 247.159 692.656 95.2459 473.227 27.7307C278.716 -32.1179 161.367 17.2818 96.262 59.8813C42.4101 75.153 -66.0989 247.159 60.0925 265.646C161.046 280.435 352.932 277.702 423.395 274.487L411.338 257.608C385.618 262.43 84.2054 257.608 69.7376 247.159C58.1634 238.8 64.915 229.208 69.7376 225.457L185.48 229.476V221.438C50.4472 221.438 34.372 182.858 60.0925 186.876C80.669 190.091 136.183 193.575 161.367 194.914V186.876C46.9111 186.876 49.9119 156.333 65.7193 141.062H114.749V133.828C45.6251 118.556 111.534 36.5721 304.438 38.1796C497.342 39.7872 530.296 79.1717 564.055 116.949C591.061 147.17 552.802 161.156 530.296 164.371V171.605C576.915 171.605 597.007 171.605 588.969 186.876C580.759 202.476 568.877 201.344 556.017 206.971C545.729 211.472 500.825 215.276 479.659 216.616L483.678 225.457C531.904 226.1 570.217 216.616 583.345 211.793C601.564 214.74 605.045 229.476 577.719 235.906C528.207 250.696 454.207 256.536 423.395 257.608Z" fill="#FEE7A6"/>
<path d="M55.268 375.762C-6.46129 359.043 -4.21074 302.887 4.6307 276.898C76.1656 265.646 68.1286 291.366 72.9512 339.592C103.494 391.033 128.947 369.599 138.056 353.256C139.396 341.735 144.647 318.855 154.935 319.498C167.796 320.302 175.833 339.592 180.656 346.022C185.479 352.452 224.863 350.041 228.078 339.592C228.882 303.423 229.686 308.245 250.584 298.6C541.547 294.581 610.671 272.076 621.924 272.076C647.644 280.113 644.429 331.554 636.392 346.022C628.354 360.49 573.698 375.762 499.751 390.229C232.901 404.697 132.43 396.66 55.268 375.762Z" fill="#FEE7A6"/>
<path d="M89.0282 611.265C15.7247 573.97 8.11572 515.349 13.4742 490.7C14.4232 475.268 27.8006 484.27 34.3707 490.7C72.9515 518.832 97.0645 514.813 97.8683 520.44C98.5113 524.941 191.373 530.889 237.724 533.3C242.814 538.39 248.976 549.697 232.901 554.198C216.826 558.699 162.973 556.073 138.057 554.198C110.407 546.482 93.8504 550.983 89.0282 554.198C80.6702 585.706 134.842 596.798 162.973 598.405C206.698 613.837 363.379 608.05 436.254 603.228C496.697 596.798 540.208 579.115 554.408 571.077C589.773 551.144 569.143 537.587 554.408 533.3H472.424C462.778 529.442 468.405 519.368 472.424 514.813C498.144 518.671 543.691 513.206 563.249 509.991C574.823 511.277 592.721 503.025 600.222 498.738C611.154 462.729 627.283 466.587 633.981 473.017C630.766 529.281 619.513 573.488 554.408 611.265C489.303 649.042 180.658 657.884 89.0282 611.265Z" fill="#FEE7A6"/>
<circle cx="224.06" cy="112.126" r="14.4678" fill="#FEE7A6"/>
<circle cx="399.28" cy="184.465" r="14.4678" fill="#FEE7A6"/>
<circle cx="442.679" cy="99.266" r="14.4678" fill="#FEE7A6"/>
<circle cx="520.656" cy="124.183" r="10.449" fill="#FEE7A6"/>
<circle cx="498.144" cy="180.446" r="10.449" fill="#FEE7A6"/>
<circle cx="379.183" cy="122.575" r="10.449" fill="#FEE7A6"/>
<circle cx="173.42" cy="116.145" r="10.449" fill="#FEE7A6"/>
<circle cx="174.231" cy="79.9757" r="8.03767" fill="#FEE7A6"/>
<circle cx="457.149" cy="145.884" r="8.03767" fill="#FEE7A6"/>
<circle cx="343.824" cy="215.812" r="10.449" fill="#FEE7A6"/>
</svg>
