<svg width="395" height="639" viewBox="0 0 395 639" fill="none" xmlns="http://www.w3.org/2000/svg">
<path d="M107.469 93.5702C105.104 82.3389 93.4594 56.1522 65.7949 41.256" stroke="#FEE7A6" stroke-width="2"/>
<path d="M6.41438 217.706C0.290575 210.451 -4.20022 190.718 26.8271 169.825" stroke="#FEE7A6" stroke-width="4"/>
<path d="M11.7227 210.945C11.7194 199.418 14.3807 191.438 24.138 185.231" stroke="#FEE7A6"/>
<path d="M110.143 305.487C104.527 311.103 93.8277 323.221 95.9557 326.768" stroke="#FEE7A6"/>
<path d="M262.767 237.213C259.516 240.168 235.177 248.542 247.702 251.4C267.131 255.833 272.528 267.656 274.301 273.567C272.824 282.138 274.047 298.217 287.525 293.961" stroke="#FEE7A6"/>
<path d="M274.224 237.213C270.973 240.168 246.634 248.542 259.159 251.4" stroke="#FEE7A6"/>
<path d="M64.0907 222.139C64.0907 222.139 44.6746 223.913 61.5392 233.666C78.4038 243.419 124.503 252.286 115.637 273.567C106.77 294.847 81.8243 323.221 81.8243 331.201" stroke="#FEE7A6"/>
<path d="M77.0455 223.026C77.0455 223.026 57.6295 224.799 74.4941 234.553C91.3587 244.306 124.355 252.286 121.695 270.907" stroke="#FEE7A6"/>
<path d="M189.094 96.2306C191.754 115.442 195.478 161.136 189.094 172.485" stroke="#FEE7A6" stroke-width="2"/>
<path d="M186.459 128.151C189.119 147.362 189.119 152.091 185.572 167.165" stroke="#FEE7A6"/>
<path d="M96.8824 181.352C96.3616 168.222 102.772 136.54 125.272 118.397" stroke="#FEE7A6" stroke-width="2"/>
<path d="M119.078 207.066C122.625 210.612 129.896 218.415 130.605 221.252" stroke="#FEE7A6" stroke-width="2"/>
<path d="M56.8884 214.159C64.9714 203.519 49.0112 135.244 35.7109 117.511L42.8044 109.531" stroke="#FEE7A6" stroke-width="2"/>
<path d="M35.72 118.397L19.7598 114.85" stroke="#FEE7A6" stroke-width="2"/>
<path d="M229.891 122.831C234.62 143.816 241.772 198.376 232.551 248.74" stroke="#FEE7A6" stroke-width="2"/>
<path d="M229.025 174.258C232.572 193.765 232.572 213.272 229.025 243.42" stroke="#FEE7A6"/>
<path d="M214.827 281.547C216.245 263.813 178.473 207.361 157.192 181.352L135.025 178.692" stroke="#FEE7A6" stroke-width="2"/>
<path d="M57.8809 155.638C57.8809 155.638 68.521 192.879 64.9743 211.499" stroke="#FEE7A6"/>
<path d="M104.82 132.584C104.82 132.584 96.8402 144.111 93.2935 163.618" stroke="#FEE7A6"/>
<path d="M195.314 226.572C195.314 226.572 219.255 261.153 219.255 279.773" stroke="#FEE7A6"/>
<path d="M158.094 180.465L163.414 168.051" stroke="#FEE7A6" stroke-width="2"/>
<path d="M300.828 223.912C310.877 193.765 335.231 130.634 352.256 119.284" stroke="#FEE7A6" stroke-width="2"/>
<path d="M307.031 226.573C310.578 217.706 310.578 207.066 324.765 181.352" stroke="#FEE7A6"/>
<path d="M292.841 65.1967C290.279 77.6487 281.196 109.446 268.9 133.471" stroke="#FEE7A6" stroke-width="2"/>
<path d="M285.722 110.417C283.16 122.87 270.648 139.678 270.648 139.678" stroke="#FEE7A6"/>
<path d="M239.232 256.356C218.563 235.205 292.2 215.48 309.827 228.955C313.22 230.765 322.183 233.955 317.436 240.219C313.638 245.23 293.893 255.394 284.495 259.85C275.096 264.306 301.252 297.159 295.034 299.952C295.034 299.952 278.437 304.887 270.495 294.447C262.553 284.006 271.575 281.39 264.392 268.528C258.645 258.239 246.861 264.162 239.232 256.356Z" stroke="#FEE7A6" stroke-width="3"/>
<path d="M162.147 262.388C195.146 226.796 71.0655 198.646 42.6105 221.564C37.0793 224.698 45.4715 231.006 59.6584 239.861C68.4703 245.362 89.7968 255.636 105.766 262.388C121.735 269.14 61.5795 332.254 72.1346 336.469C72.1346 336.469 100.135 343.61 112.655 326.164C125.176 308.717 109.959 304.943 121.049 283.591C129.922 266.51 149.968 275.525 162.147 262.388Z" stroke="#FEE7A6" stroke-width="4"/>
<path d="M197.916 23.5224C199.689 17.6112 204.477 5.07938 209.443 2.242C214.408 -0.59538 247.57 8.15322 263.53 12.8822L278.604 32.3892C276.24 53.9651 267.787 102.969 256.437 115.737" stroke="#FEE7A6" stroke-width="2"/>
<path d="M88.873 149.431C90.942 133.766 98.0945 94.102 110.153 92.6833C125.227 90.9099 150.941 106.87 151.827 120.17C152.537 130.811 142.961 145.293 138.527 150.318" stroke="#FEE7A6" stroke-width="2"/>
<path d="M64.0921 93.5705C58.1809 85.2948 25.0781 51.8965 25.0781 51.8965L52.5652 19.9759C63.7965 19.6804 88.2098 20.508 96.0126 26.1827C103.815 31.8575 119.953 78.2014 127.046 93.5705C126.16 80.2703 135.027 29.7294 135.027 29.7294C142.416 26.4783 192.661 19.9759 192.661 19.9759L214.828 35.0495L196.208 70.5168" stroke="#FEE7A6" stroke-width="2"/>
<path d="M246.68 278L224.513 237.213C224.513 237.213 189.341 168.938 173.085 151.205H118.998L115.451 177.805C154.465 209.726 179.588 262.631 187.272 285.094" stroke="#FEE7A6" stroke-width="2"/>
<path d="M260.922 229.232C267.125 207.952 292.827 149.136 324.748 98.8903C324.748 98.8903 357.829 91.2057 362.854 94.4568L393.001 137.018C393.001 137.018 327.719 227.755 324.763 246.079" stroke="#FEE7A6" stroke-width="2"/>
<path d="M222.816 234.553L207.742 193.765C207.742 193.765 204.491 127.264 201.535 103.324L229.022 95.3436C229.022 95.3436 257.101 115.442 268.036 123.717C268.036 123.717 278.676 191.105 260.943 228.346" stroke="#FEE7A6" stroke-width="2"/>
<path d="M158.968 150.318C157.491 129.038 163.379 65.1967 163.379 65.1967C178.158 67.5611 209.132 70.6941 214.807 78.4969C220.482 86.2997 221.311 95.3438 221.015 97.1172" stroke="#FEE7A6" stroke-width="2"/>
<path d="M161.634 232.779L155.427 222.139L134.147 195.539L110.206 190.219L97.7929 210.612L96.9062 215.932" stroke="#FEE7A6" stroke-width="2"/>
<path d="M209.451 614.939C245.069 534.339 315.483 361.558 312.195 315.241" stroke="#FEE7A6" stroke-width="4"/>
<path d="M193.515 603.817C222.914 542.825 281.792 411.778 282.108 375.529" stroke="#FEE7A6" stroke-width="2"/>
<path d="M182.887 590.744C201.178 556.012 237.77 481.369 237.812 460.653" stroke="#FEE7A6" stroke-width="2"/>
<path d="M282.23 264.7C319.174 241.492 342.82 243.124 348.732 254.059L311.491 410.115C286.664 480.459 236.123 623.096 232.576 630.899C229.03 638.702 217.503 634.15 212.183 630.899C205.089 634.446 195.04 635.924 190.902 636.219L151.002 604.299C157.386 595.077 55.5356 341.545 3.8125 215.932L19.7728 211.499L49.0332 232.779" stroke="#FEE7A6" stroke-width="4"/>
<path d="M105.727 341.841L105.601 339.845L103.12 340.001L103.804 342.391L105.727 341.841ZM266.844 274.872C267.565 274.036 267.472 272.773 266.635 272.052C265.798 271.33 264.536 271.424 263.814 272.261L266.844 274.872ZM162.69 590.79C157.945 545.568 144.171 483.162 131.609 432.137C125.324 406.608 119.335 383.899 114.917 367.573C112.708 359.409 110.891 352.84 109.627 348.312C108.995 346.047 108.501 344.293 108.165 343.104C107.996 342.51 107.868 342.057 107.781 341.752C107.738 341.6 107.705 341.485 107.683 341.408C107.672 341.369 107.663 341.34 107.658 341.32C107.655 341.31 107.653 341.303 107.652 341.298C107.651 341.296 107.65 341.294 107.65 341.293C107.65 341.291 107.649 341.291 105.727 341.841C103.804 342.391 103.804 342.392 103.804 342.393C103.805 342.394 103.805 342.396 103.806 342.398C103.807 342.403 103.809 342.41 103.812 342.42C103.817 342.439 103.826 342.467 103.836 342.505C103.858 342.582 103.891 342.696 103.934 342.847C104.02 343.15 104.148 343.601 104.316 344.193C104.651 345.378 105.144 347.128 105.774 349.387C107.036 353.907 108.85 360.465 111.056 368.617C115.468 384.922 121.449 407.601 127.725 433.093C140.285 484.11 153.998 546.283 158.712 591.207L162.69 590.79ZM105.852 343.837C134.441 342.041 170.171 329.997 200.881 315.906C216.261 308.848 230.441 301.25 241.906 294.112C253.318 287.006 262.202 280.257 266.844 274.872L263.814 272.261C259.59 277.161 251.146 283.646 239.791 290.716C228.489 297.754 214.461 305.273 199.213 312.27C168.669 326.286 133.464 338.094 105.601 339.845L105.852 343.837Z" fill="#FEE7A6"/>
<path d="M40.1469 224.799C40.1469 181.352 2.90625 112.191 2.90625 112.191L25.0733 90.0236L64.0873 93.5703C108.421 175.145 96.8945 215.932 96.8945 215.932" stroke="#FEE7A6" stroke-width="2"/>
<path d="M275.963 47.4628L286.603 41.256C294.583 43.3249 326.504 63.423 326.504 63.423L315.864 113.964" stroke="#FEE7A6" stroke-width="2"/>
<path d="M127.896 275.243C164.782 282.516 244.087 291.477 266.219 269.133" stroke="#FEE7A6" stroke-width="4"/>
<path d="M64.9746 41.256C76.5015 49.8272 101.151 72.1125 107.535 92.6835" stroke="#FEE7A6" stroke-width="2"/>
<path d="M88.873 72.2897C98.6265 83.8165 101.287 91.7967 103.06 98.8901" stroke="#FEE7A6"/>
<path d="M187.732 33.6328C181.483 39.8103 169.363 54.7001 170.877 64.8388" stroke="#FEE7A6" stroke-width="2"/>
<path d="M181.117 51.8964C174.867 58.0739 174.911 65.1966 174.911 65.1966" stroke="#FEE7A6"/>
<path d="M255.603 26.182C246.742 35.9355 233.433 78.4963 239.643 102.437" stroke="#FEE7A6" stroke-width="2"/>
<path d="M246.7 67.8566C242.268 82.9302 244.054 95.3438 244.058 105.097" stroke="#FEE7A6"/>
<path d="M135.916 413.662C135.916 389.722 126.357 364.656 122.942 355.141C119.527 345.626 200.644 340.954 256.505 291.3" stroke="#FEE7A6"/>
<path d="M135.166 380.855C135.166 371.14 129.839 360.969 127.936 357.107C126.034 353.246 192.624 338.294 202.36 331.201" stroke="#FEE7A6"/>
</svg>
